<svg version="1.2" xmlns="http://www.w3.org/2000/svg" viewBox="0 0 150 150" width="1080" height="1080">
	<title>step</title>
	<style>
		.s0 { fill: #f77f00 } 
	</style>
	<g id="Layer 1">
		<path class="s0" d="m122.2 102.1c0 12.5-4.7 24.2-13.4 33-8.6 8.8-20.3 13.8-33.9 13.8-0.6 0-1-0.4-1-0.9v-27.6q0-0.4 0.3-0.7c0.2-0.2 0.5-0.3 0.7-0.3 3.4 0.3 18.7 2.3 30.1-9.8 5-5.3 7.4-13.6 6-21.2-0.7-3.9-4.3-12-14-12-12.2 0-16.2 5.7-17.6 8.4-1.6 3.1-2.2 6.7-2.4 9.5-0.4 4-0.4 12.6-0.4 12.6 0 0.8-0.7 1.4-1.4 1.4-0.7 0-1.3-0.6-1.3-1.4 0 0 0-8.6-0.4-12.6-0.3-2.8-0.8-6.4-2.4-9.5-1.2-2.3-4.2-6.5-12.1-7.9-2.3-0.4-4.1-0.3-7.9-0.7-15.5-1.5-20.2-14.8-20.9-17.1-1.2-3.5-2-7.4-2-11.1 0-12.5 4.8-24.2 13.4-33 8.6-8.8 20.4-13.9 34-13.9 0.5 0 1 0.5 1 1v27.6q0 0.4-0.3 0.7c-0.2 0.2-0.5 0.3-0.8 0.3-3.4-0.3-18.6-2.3-30.1 9.8-5 5.3-7.4 13.6-6 21.2 0.7 4 4.3 12 14.1 12 12.1 0 16.2-5.7 17.5-8.3 1.7-3.2 2.2-6.8 2.5-9.6 0.4-4 0.4-12.6 0.4-12.6 0-0.8 0.6-1.4 1.3-1.4 0.7 0 1.4 0.6 1.4 1.4 0 0 0 8.6 0.4 12.6 0.2 2.8 0.8 6.4 2.4 9.6 1.1 2.2 4.1 6.5 12.1 7.8 2.2 0.4 4 0.3 7.8 0.7 15.5 1.5 20.2 14.8 20.9 17.1 1.2 3.5 2 7.4 2 11.1z"/>
	</g>
</svg>