<?xml version="1.0" encoding="UTF-8"?>
<svg version="1.1" xmlns="http://www.w3.org/2000/svg" width="3323" height="3871">
<path d="M0 0 C20.02303741 16.70936573 24.03037879 40.08912106 26.375 64.8125 C27.12523178 75.20480794 27.49607174 85.61958556 27.89568996 96.03010201 C28.0549994 100.11842194 28.22654614 104.20623142 28.39666748 108.29411316 C28.68719322 115.31077244 28.97077968 122.32768207 29.24954224 129.34481812 C29.69121953 140.45667769 30.1488651 151.56785201 30.60913086 162.67895508 C30.76527313 166.45203914 30.92133518 170.22512652 31.07737732 173.99821472 C31.11610153 174.93426349 31.15482575 175.87031227 31.19472343 176.83472615 C31.46974746 183.4865018 31.74295071 190.1383507 32.01527405 196.79023743 C33.43108139 231.36273537 34.90337086 265.93254997 36.4375 300.5 C36.46789006 301.18510493 36.49828012 301.87020987 36.52959108 302.57607555 C39.82644523 376.87150851 43.48544175 451.15094278 48.24861908 525.36830139 C48.43691559 528.30339052 48.62413208 531.23854734 48.81134033 534.17370605 C49.96799218 552.24655749 51.16984204 570.30460749 52.86328125 588.3359375 C56.51182397 627.9356033 56.79468408 667.22988233 56.48282719 706.9875946 C56.45489132 710.55476594 56.43038006 714.12194877 56.40629578 717.68914795 C56.37650186 722.07797278 56.33154349 726.4662316 56.2759552 730.85479736 C55.95660224 763.62579512 57.29409178 803.65655123 81.375 828.8125 C93.78302541 839.56472472 108.69394356 843.21875408 124.75 843.125 C125.76223633 843.11936035 126.77447266 843.1137207 127.81738281 843.10791016 C141.49044804 842.88567334 153.37147775 839.60307249 163.6875 830.1875 C180.00775512 812.53225469 179.25970137 785.35619675 178.47399902 762.95166016 C177.37020246 739.10094381 173.13858578 715.237701 169.74975586 691.64160156 C169.60055695 690.60010956 169.45135803 689.55861755 169.29763794 688.48556519 C169.01822747 686.53990011 168.73694668 684.59450223 168.45333862 682.64944458 C168.32605377 681.7640097 168.19876892 680.87857483 168.06762695 679.96630859 C167.90252373 678.83012589 167.90252373 678.83012589 167.73408508 677.67098999 C167.61558701 676.72768829 167.49708893 675.7843866 167.375 674.8125 C167.28938466 674.14729056 167.20376932 673.48208113 167.11555958 672.79671383 C166.22599091 665.10231358 166.21554227 657.42934882 166.20141602 649.69262695 C166.19509419 648.18388179 166.18832666 646.67513844 166.18115234 645.16639709 C166.16653284 641.92004598 166.15478319 638.67370177 166.14520454 635.42733192 C166.12947766 630.20023641 166.10550068 624.97319683 166.08030701 619.74613953 C166.01422717 605.78768055 165.95744325 591.82918716 165.90789509 577.87065983 C165.72022416 525.15984798 165.00110334 472.49962694 163.375 419.8125 C163.32036276 418.03423765 163.32036276 418.03423765 163.26462173 416.22005081 C162.85495336 402.99647106 162.38106237 389.77599681 161.86206436 376.55628586 C161.74515828 373.56355463 161.63043191 370.57074601 161.51620483 367.57791138 C159.23882512 307.99020455 156.6459351 248.41431131 154.10498047 188.83740234 C154.06142823 187.81616536 154.01787599 186.79492837 153.97300398 185.7427448 C153.55683971 175.98546317 153.14029329 166.22819816 152.72225219 156.47099674 C151.36139435 124.70680618 151.36139435 124.70680618 150.78100586 110.52783203 C150.74152486 109.58478934 150.70204386 108.64174665 150.66136646 107.67012691 C150.28969948 98.45107656 150.15442872 89.23268099 150.13476562 80.0065918 C150.12819799 78.15271187 150.11440309 76.29884487 150.09375 74.44506836 C149.8637475 53.789766 151.38470172 33.41291014 166.37109375 17.72265625 C178.43395235 6.17585578 194.17406565 3.28616838 210.39624023 3.39086914 C225.50768448 3.85351111 237.66417181 10.14615221 247.9921875 20.9921875 C265.53916054 41.76089986 270.61190812 71.43317534 275.9375 97.3125 C276.31526077 99.12896027 276.31526077 99.12896027 276.70065308 100.9821167 C283.32666928 132.84682608 289.47018238 164.80690689 295.375 196.8125 C295.49615929 197.4690583 295.61731857 198.12561661 295.74214935 198.80207062 C312.08798361 287.47381438 324.81485162 376.82111573 347.0625 639.25 C347.09331539 639.92001289 347.12413078 640.59002579 347.15587997 641.2803421 C347.60752455 651.12275498 348.01055761 660.96649102 348.375 670.8125 C348.4244577 672.12472534 348.47391541 673.43695068 348.52487183 674.78894043 C349.51415846 701.6212902 349.56259426 728.45686208 349.56030273 755.3046875 C349.56022107 760.23734165 349.56724753 765.16990372 349.58081055 770.10253906 C349.72546493 823.59341712 349.72546493 823.59341712 347.375 847.8125 C347.26144669 849.0456192 347.26144669 849.0456192 347.14559937 850.3036499 C346.72435944 854.8191827 346.21166824 859.31491862 345.625 863.8125 C345.54229858 864.45684998 345.45959717 865.10119995 345.37438965 865.76507568 C339.85286351 908.39552653 328.23891693 949.73472951 310.375 988.8125 C310.00938965 989.62734863 309.6437793 990.44219727 309.26708984 991.28173828 C300.17486631 1011.53241081 289.06878613 1030.61688715 276.375 1048.8125 C275.9409082 1049.43946777 275.50681641 1050.06643555 275.05957031 1050.71240234 C263.03379555 1068.03931609 249.61156464 1084.26251259 235.375 1099.8125 C234.92012207 1100.31249512 234.46524414 1100.81249023 233.99658203 1101.32763672 C225.24896156 1110.94037434 216.42536728 1120.49836016 206.5234375 1128.9453125 C204.34297516 1130.8403325 202.22121902 1132.79188598 200.10424805 1134.75732422 C195.00607254 1139.48655813 189.81202307 1144.02636573 184.390625 1148.38671875 C182.17857784 1150.16609865 179.98293161 1151.95880553 177.796875 1153.76953125 C164.14419126 1165.04151637 149.86650323 1175.39401864 135.37402344 1185.55273438 C129.44379074 1189.72596455 123.68105466 1194.07685409 117.97851562 1198.55615234 C116.30918053 1199.86406927 114.63179598 1201.16112375 112.953125 1202.45703125 C104.53052833 1208.98369308 96.40775795 1215.81358285 88.375 1222.8125 C87.23417969 1223.80056641 87.23417969 1223.80056641 86.0703125 1224.80859375 C80.77864363 1229.40958295 75.56614211 1234.09861989 70.375 1238.8125 C69.87307129 1239.26786133 69.37114258 1239.72322266 68.85400391 1240.19238281 C58.88455755 1249.25551586 48.93563704 1258.43030969 40.19921875 1268.7109375 C38.35880415 1270.83115817 36.45266608 1272.88089171 34.53320312 1274.92944336 C28.51828396 1281.37087119 23.03682372 1288.1269997 17.68066406 1295.12158203 C16.47953992 1296.67711416 15.25264022 1298.21265315 14.0234375 1299.74609375 C-28.11046296 1352.80098848 -56.21837749 1418.5879747 -55.9375 1486.875 C-55.93534485 1487.82059784 -55.9331897 1488.76619568 -55.93096924 1489.740448 C-55.87787995 1504.28154269 -55.38638945 1518.49700957 -52.625 1532.8125 C-52.44227539 1533.79186523 -52.25955078 1534.77123047 -52.07128906 1535.78027344 C-38.97302377 1603.76650759 -1.74484348 1663.11679959 44.90039062 1713.22021484 C46.46990783 1714.9149816 48.02437029 1716.62280825 49.578125 1718.33203125 C57.79946601 1727.32486595 66.45342256 1735.74693174 75.41210938 1744.00244141 C77.19278934 1745.64447639 78.96509081 1747.29492734 80.734375 1748.94921875 C86.1750926 1754.01605431 91.75323264 1758.85197496 97.546875 1763.51171875 C100.05329982 1765.55078535 102.51116518 1767.63654151 104.95849609 1769.74584961 C112.17513965 1775.95084496 119.7024167 1781.66341007 127.35742188 1787.31396484 C129.29619553 1788.7539688 131.22073136 1790.21073152 133.140625 1791.67578125 C151.91429481 1805.97744418 171.5242002 1819.0642485 191.375 1831.8125 C192.74954346 1832.69784424 192.74954346 1832.69784424 194.15185547 1833.60107422 C233.32274162 1858.80868336 273.66515012 1882.08942061 314.66064453 1904.18823242 C318.89543315 1906.47181042 323.12524173 1908.76414772 327.35083008 1911.06469727 C346.72306766 1921.57036912 366.38976473 1931.45687195 386.11480713 1941.2802124 C389.55449947 1942.9946319 392.99192863 1944.71356215 396.42936707 1946.43249512 C414.33655981 1955.38582515 432.26520227 1964.27439742 450.375 1972.8125 C451.79972552 1973.48760769 453.22429378 1974.16304738 454.64868164 1974.83886719 C458.51249168 1976.670442 462.38043843 1978.4931128 466.25 1980.3125 C466.94445221 1980.63921692 467.63890442 1980.96593384 468.35440063 1981.30255127 C487.32226204 1990.22308932 506.34691649 1999.02134498 525.375 2007.8125 C526.20360535 2008.19533142 527.03221069 2008.57816284 527.88592529 2008.97259521 C542.55724144 2015.75038592 557.23226021 2022.52015244 571.9092865 2029.28556824 C591.21979279 2038.1872899 610.51418703 2047.12134514 629.77441406 2056.13134766 C633.44867421 2057.84689928 637.12618625 2059.55528939 640.8046875 2061.26171875 C656.69579436 2068.63859611 672.49893884 2076.17904072 688.25065613 2083.84924316 C691.9254911 2085.63497588 695.60874065 2087.40165766 699.30029297 2089.15258789 C714.76898579 2096.49520889 730.100685 2104.09759379 745.41015625 2111.76489258 C748.93024711 2113.52779638 752.45215411 2115.28703781 755.97453403 2117.04536247 C770.85886684 2124.47723497 785.70565418 2131.96204816 800.375 2139.8125 C801.59151879 2140.46058436 802.80814856 2141.10846045 804.02490234 2141.75610352 C807.33190583 2143.51972843 810.63544579 2145.28962816 813.9375 2147.0625 C815.12849296 2147.70167207 816.31949248 2148.34083189 817.51049805 2148.97998047 C819.33809093 2149.9608813 821.16559789 2150.94194085 822.99287415 2151.9234314 C827.03959711 2154.09692739 831.08948828 2156.26442477 835.140625 2158.4296875 C847.37264319 2164.97737221 859.51646004 2171.65633295 871.57421875 2178.51953125 C876.70543391 2181.43948511 881.85751896 2184.32079707 887.01416016 2187.19555664 C897.13617496 2192.8400271 907.19704932 2198.56524285 917.15527344 2204.49365234 C919.63399441 2205.96638119 922.11741968 2207.43096686 924.6015625 2208.89453125 C951.33645919 2224.6489818 977.88858962 2240.69403239 1004.07177734 2257.35253906 C1006.36137363 2258.80386255 1008.65828448 2260.24291013 1010.95703125 2261.6796875 C1029.42436186 2273.27015535 1047.48176757 2285.49147413 1065.59863281 2297.61865234 C1068.59488932 2299.62366666 1071.59372909 2301.62465486 1074.59667969 2303.61962891 C1082.03781106 2308.56312715 1089.42734641 2313.56913786 1096.75 2318.6875 C1097.73186279 2319.37239502 1098.71372559 2320.05729004 1099.7253418 2320.76293945 C1102.61028061 2322.77701541 1105.49319021 2324.79395006 1108.375 2326.8125 C1109.1676123 2327.36760254 1109.96022461 2327.92270508 1110.77685547 2328.49462891 C1133.74104869 2344.59735362 1156.36220414 2361.16094521 1178.640625 2378.19921875 C1182.26399788 2380.96932284 1185.90408713 2383.71390257 1189.5625 2386.4375 C1201.11095142 2395.07830433 1212.44648342 2403.99143372 1223.60961914 2413.12353516 C1227.88514781 2416.61757293 1232.20538308 2420.04593572 1236.5625 2423.4375 C1241.73761248 2427.47104355 1246.7767455 2431.63882779 1251.76464844 2435.90112305 C1254.90195699 2438.57895101 1258.07530469 2441.19404155 1261.3125 2443.75 C1266.02510624 2447.48336338 1270.57611794 2451.38753122 1275.12597656 2455.31567383 C1278.72497742 2458.41709668 1282.3650575 2461.45313569 1286.0625 2464.4375 C1290.80477487 2468.28711137 1295.32428961 2472.33962671 1299.8203125 2476.47265625 C1302.62384722 2479.0404197 1305.47844875 2481.54146875 1308.34765625 2484.03515625 C1311.57763076 2486.86682947 1314.75690656 2489.75452507 1317.9453125 2492.6328125 C1320.0310618 2494.50395094 1322.13317628 2496.35174831 1324.25 2498.1875 C1328.16961567 2501.60135881 1331.99667405 2505.11348752 1335.82080078 2508.63330078 C1338.9012464 2511.46723372 1342.00168398 2514.27570288 1345.125 2517.0625 C1349.65686991 2521.13163441 1354.11559045 2525.27604086 1358.5625 2529.4375 C1359.22797852 2530.05915039 1359.89345703 2530.68080078 1360.57910156 2531.32128906 C1363.72834056 2534.27634326 1366.83316983 2537.25862808 1369.86328125 2540.3359375 C1372.08897943 2542.5818188 1374.36605667 2544.68665904 1376.78173828 2546.7253418 C1382.93161809 2552.07982794 1388.62170929 2557.91535446 1394.37890625 2563.68359375 C1395.62851145 2564.9325238 1396.87826493 2566.18130551 1398.12815857 2567.4299469 C1400.73607304 2570.03639431 1403.34218907 2572.64462294 1405.94702148 2575.25415039 C1409.26755965 2578.58038521 1412.59256812 2581.90210934 1415.91894627 2585.22250271 C1418.49713426 2587.79705823 1421.07291244 2590.37401415 1423.64799309 2592.95167732 C1424.8723326 2594.17667868 1426.09740084 2595.40095219 1427.32324409 2596.62444878 C1438.87809022 2608.16201983 1438.87809022 2608.16201983 1444.01853943 2614.2358551 C1446.17117923 2616.73791718 1448.51355394 2619.00661738 1450.875 2621.3125 C1454.66180573 2625.04252623 1458.24897309 2628.87484079 1461.69921875 2632.91796875 C1463.51477378 2634.97051931 1465.42259536 2636.88996006 1467.375 2638.8125 C1470.59617426 2641.99039553 1473.60621801 2645.2806228 1476.55078125 2648.71484375 C1477.7946954 2650.14521184 1479.06434069 2651.55350725 1480.35546875 2652.94140625 C1502.2877639 2676.5515819 1519.46261501 2703.15284356 1518.74609375 2736.2890625 C1517.65107077 2758.58700368 1505.94664263 2776.74181449 1493.51171875 2794.46875 C1484.80450386 2807.08664949 1484.05824037 2820.48899673 1484.25 2835.5390625 C1484.25971938 2836.9542823 1484.26825377 2838.36951066 1484.2756958 2839.78474426 C1484.2924502 2842.78150578 1484.31406352 2845.77817144 1484.33947754 2848.77487183 C1484.40363318 2856.68702388 1484.41634008 2864.59933656 1484.421875 2872.51171875 C1484.4227927 2873.69673697 1484.4227927 2873.69673697 1484.42372894 2874.90569496 C1484.45472834 2970.75052463 1471.63989265 3067.07455953 1379.97216797 3327.55517578 C1378.54830144 3330.45906254 1377.13440114 3333.36755353 1375.72265625 3336.27734375 C1369.93843945 3348.11395046 1363.5571088 3359.56901674 1356.9921875 3370.98828125 C1355.44946983 3373.68244762 1353.92464205 3376.38581551 1352.40625 3379.09375 C1325.12305015 3427.61657702 1292.5327503 3473.6100006 1256.45141602 3515.984375 C1253.61622675 3519.31977583 1250.85493023 3522.70232432 1248.125 3526.125 C1243.63127715 3531.65698372 1238.77640723 3536.81944839 1233.86621094 3541.97973633 C1230.74812104 3545.2593489 1227.6906053 3548.56817021 1224.7265625 3551.98828125 C1222.05912528 3555.06260933 1219.29284978 3557.97143574 1216.375 3560.8125 C1213.48510172 3563.66773683 1210.69048255 3566.52750196 1208.0625 3569.625 C1201.14441495 3577.69063471 1193.43037033 3585.20341738 1185.33203125 3592.07421875 C1182.91047011 3594.22510639 1180.65125205 3596.50861515 1178.375 3598.8125 C1174.8632345 3602.36168157 1171.28491099 3605.73218457 1167.4921875 3608.9765625 C1164.96900545 3611.1645617 1162.51945481 3613.42543113 1160.0625 3615.6875 C1155.6189835 3619.74091354 1151.04901903 3623.57433877 1146.3671875 3627.34765625 C1143.56967639 3629.65213342 1140.84370626 3632.0170627 1138.12475586 3634.41259766 C1130.21527992 3641.37343089 1121.99289131 3647.79893916 1113.57958984 3654.13574219 C1110.57283853 3656.42260465 1107.60685423 3658.75968864 1104.63842773 3661.09594727 C1096.14785624 3667.76953097 1087.47866553 3674.10755798 1078.60400391 3680.25878906 C1076.27120673 3681.88484834 1073.95295739 3683.5301379 1071.63671875 3685.1796875 C1034.94770405 3711.24050625 995.78271278 3733.71245284 955.7109375 3754.11083984 C952.74936847 3755.62153482 949.79556581 3757.14615464 946.84375 3758.67578125 C875.31410158 3795.4549475 796.73922609 3820.88383523 564.375 3857.8125 C563.58390839 3857.85486786 562.79281677 3857.89723572 561.97775269 3857.94088745 C543.75871023 3858.89189016 525.55070377 3859.01464029 507.3125 3859 C506.19118746 3858.99959969 506.19118746 3858.99959969 505.04722214 3858.99919128 C481.10448888 3858.98848721 457.25595239 3858.66984673 433.375 3856.8125 C432.51396667 3856.74697937 431.65293335 3856.68145874 430.76580811 3856.61395264 C336.24185553 3849.39820611 243.75487613 3829.87581843 -38.625 3711.8125 C-26.33207909 3701.82874655 -12.9629026 3693.31111092 0.375 3684.8125 C1.33293457 3684.20180664 2.29086914 3683.59111328 3.27783203 3682.96191406 C17.09355862 3674.18059744 31.06113273 3665.75602359 45.375 3657.8125 C46.31279297 3657.28946289 47.25058594 3656.76642578 48.21679688 3656.22753906 C105.88005974 3624.16029368 168.1545802 3600.92029615 234.375 3595.8125 C235.1081543 3595.75465332 235.84130859 3595.69680664 236.59667969 3595.63720703 C267.15195779 3593.32739799 297.5031209 3595.7651957 327.87945557 3599.07888794 C338.53631487 3600.2398337 349.17791485 3601.27373989 359.875 3602 C360.92695557 3602.07154297 361.97891113 3602.14308594 363.06274414 3602.21679688 C366.49929183 3602.4358512 369.93642708 3602.62782693 373.375 3602.8125 C374.12916199 3602.85486786 374.88332397 3602.89723572 375.66033936 3602.94088745 C391.44131415 3603.81337552 407.19693534 3604.01421435 423 3604 C424.87484573 3603.99909363 424.87484573 3603.99909363 426.78756714 3603.99816895 C447.38355229 3603.97126432 467.84885225 3603.52168648 488.375 3601.8125 C489.14642334 3601.74933594 489.91784668 3601.68617188 490.71264648 3601.62109375 C576.20887929 3594.56629286 681.23003878 3579.69279654 756.375 3512.8125 C757.05820313 3512.19375 757.74140625 3511.575 758.4453125 3510.9375 C769.89378893 3500.2075472 778.86723557 3486.50276666 786.375 3472.8125 C787.04499023 3471.59578613 787.04499023 3471.59578613 787.72851562 3470.35449219 C805.43755123 3437.91987826 820.08220856 3403.40252296 826.375 3366.8125 C826.56545898 3365.76715088 826.56545898 3365.76715088 826.75976562 3364.70068359 C832.46704043 3332.5374799 827.53286223 3298.15691633 809.04052734 3270.84130859 C799.5318847 3257.51703133 788.06052109 3246.65394478 771.8125 3242.375 C739.45286194 3237.08086804 708.87448738 3258.90629111 683.375 3275.8125 C664.63592986 3288.23653933 645.39938916 3298.97584557 625.13378906 3308.68554688 C613.13660448 3314.43779876 601.2430467 3320.38060039 589.36273193 3326.37008667 C526.49033967 3358.02942253 460.10961872 3388.43206534 388.24172974 3387.85709953 C385.92017982 3387.83922933 383.59870333 3387.82925685 381.27709961 3387.82118225 C374.68319753 3387.79719001 368.08939149 3387.7624407 361.49560547 3387.71655273 C330.10184728 3387.50632811 298.84392936 3388.44586159 267.625 3392 C266.68239319 3392.10476654 265.73978638 3392.20953308 264.76861572 3392.31747437 C175.70734945 3402.29308217 90.35297612 3428.97382327 -109.0625 3535 C-109.81078064 3535.49756805 -110.55906128 3535.99513611 -111.33001709 3536.50778198 C-125.46224162 3545.91728646 -139.40854703 3555.5940693 -153.0625 3565.6875 C-153.84343018 3566.2642749 -154.62436035 3566.8410498 -155.42895508 3567.43530273 C-168.23907887 3576.93834284 -180.73645941 3586.8250497 -193.08203125 3596.921875 C-195.97256054 3599.28567203 -198.8856944 3601.61867817 -201.8125 3603.9375 C-206.19555112 3607.43070349 -210.47069867 3611.04216924 -214.73681641 3614.67626953 C-218.18095484 3617.60626682 -221.665656 3620.47574093 -225.1875 3623.3125 C-230.2596352 3627.43823096 -235.05966829 3631.8110956 -239.8515625 3636.25390625 C-242.71530464 3638.89580921 -245.63277743 3641.46192406 -248.578125 3644.01171875 C-251.06574726 3646.20025665 -253.49853452 3648.44489191 -255.9375 3650.6875 C-260.40022832 3654.75790056 -264.98758 3658.61426909 -269.6875 3662.40625 C-272.98855281 3665.11030389 -276.21221603 3667.8940942 -279.4375 3670.6875 C-286.32861064 3676.62701669 -293.41737342 3682.26373117 -300.625 3687.8125 C-301.81536865 3688.73385742 -301.81536865 3688.73385742 -303.02978516 3689.67382812 C-313.55736157 3697.81573754 -324.13858202 3705.80135289 -335.20654297 3713.1953125 C-338.10306075 3715.13217236 -340.99045862 3717.08237638 -343.87890625 3719.03125 C-364.94631563 3733.21674276 -386.36353262 3746.56747609 -408.625 3758.8125 C-409.71731934 3759.41352539 -410.80963867 3760.01455078 -411.93505859 3760.63378906 C-475.17386181 3795.28197275 -542.5241713 3821.00023881 -612.625 3837.8125 C-613.34498169 3837.98610046 -614.06496338 3838.15970093 -614.8067627 3838.33856201 C-662.25333475 3849.75556788 -710.88639998 3857.06806534 -759.625 3859.8125 C-760.28852478 3859.85346802 -760.95204956 3859.89443604 -761.63568115 3859.93664551 C-779.07895599 3861.00053625 -796.5310716 3861.05788125 -814 3861.0625 C-814.76847008 3861.06294186 -815.53694016 3861.06338371 -816.3286972 3861.06383896 C-899.54869168 3861.08883612 -981.63813259 3849.61284338 -1121.625 3810.8125 C-1122.29813232 3810.59291626 -1122.97126465 3810.37333252 -1123.66479492 3810.14709473 C-1185.84014031 3789.83031266 -1246.67956351 3762.99160676 -1303.625 3730.8125 C-1304.6262793 3730.24740723 -1305.62755859 3729.68231445 -1306.65917969 3729.10009766 C-1330.19980995 3715.76667888 -1353.10637156 3701.60745602 -1375.625 3686.625 C-1376.84333023 3685.81595718 -1376.84333023 3685.81595718 -1378.08627319 3684.99057007 C-1389.80076969 3677.19993827 -1401.27154427 3669.11932725 -1412.625 3660.8125 C-1413.60404297 3660.10037354 -1414.58308594 3659.38824707 -1415.59179688 3658.65454102 C-1430.71201955 3647.64667007 -1445.33938565 3636.1152231 -1459.82080078 3624.28466797 C-1461.40773046 3622.98978489 -1462.99848737 3621.69959522 -1464.58984375 3620.41015625 C-1475.05413594 3611.91272074 -1485.26244066 3603.139674 -1495.1953125 3594.02734375 C-1497.23015415 3592.17243183 -1499.28821247 3590.35821202 -1501.375 3588.5625 C-1511.00808423 3580.17048797 -1520.22092693 3571.31330288 -1529.19311523 3562.22290039 C-1531.99497093 3559.39662385 -1534.8311665 3556.6945478 -1537.875 3554.125 C-1541.59039697 3550.96345103 -1544.71621893 3547.41722664 -1547.93359375 3543.7578125 C-1551.26076076 3540.11676181 -1554.74425598 3536.65557546 -1558.25 3533.1875 C-1562.60166098 3528.87409538 -1566.87786134 3524.57276586 -1570.83203125 3519.88671875 C-1572.80726158 3517.60164837 -1574.85692949 3515.39896317 -1576.91894531 3513.19238281 C-1581.89387606 3507.86714811 -1586.64595273 3502.44719978 -1591.2109375 3496.76171875 C-1594.13172496 3493.19344281 -1597.15439036 3489.7227722 -1600.1875 3486.25 C-1605.15219239 3480.54867067 -1609.97697048 3474.77678567 -1614.625 3468.8125 C-1615.68355759 3467.46221123 -1616.74215503 3466.11195371 -1617.80078125 3464.76171875 C-1625.53725555 3454.87335606 -1633.1590833 3444.90663614 -1640.625 3434.8125 C-1641.10694824 3434.16506836 -1641.58889648 3433.51763672 -1642.08544922 3432.85058594 C-1662.70499018 3405.08904289 -1681.29294573 3375.71443015 -1698.625 3345.8125 C-1699.15738281 3344.89484863 -1699.68976563 3343.97719727 -1700.23828125 3343.03173828 C-1708.5781635 3328.60181428 -1716.39077573 3313.92760715 -1723.95800781 3299.07910156 C-1725.51168673 3296.03454621 -1727.07900067 3292.99738911 -1728.6484375 3289.9609375 C-1765.11669678 3218.85057113 -1790.22995782 3141.2261526 -1801.33074951 3057.10668945 C-1801.51878183 3055.6406536 -1801.70947672 3054.17495518 -1801.90362549 3052.7097168 C-1804.71783251 3031.44912538 -1804.92848355 3010.14562121 -1804.99246979 2988.73445892 C-1804.99984014 2986.60860755 -1805.01169805 2984.48282034 -1805.02435303 2982.35699463 C-1805.15727226 2956.31776142 -1803.41078254 2930.56733605 -1798.9375 2904.875 C-1798.74950333 2903.77350113 -1798.74950333 2903.77350113 -1798.55770874 2902.64974976 C-1791.49987361 2861.58513874 -1778.89654422 2821.74032211 -1759.62255859 2784.73388672 C-1758.58558625 2782.7365856 -1757.56798687 2780.73008716 -1756.55078125 2778.72265625 C-1748.27933662 2762.56837096 -1738.45855382 2747.36116795 -1727.625 2732.8125 C-1727.23135254 2732.27995605 -1726.83770508 2731.74741211 -1726.43212891 2731.19873047 C-1717.31912501 2718.91760661 -1707.21985171 2707.50585418 -1696.8125 2696.3125 C-1696.21477783 2695.66627686 -1695.61705566 2695.02005371 -1695.0012207 2694.35424805 C-1691.34479838 2690.46088674 -1687.523412 2686.88077038 -1683.47094727 2683.40234375 C-1681.08885108 2681.35073545 -1678.79908866 2679.20634473 -1676.5 2677.0625 C-1670.1447604 2671.28263188 -1663.47390648 2665.99328072 -1656.625 2660.8125 C-1655.9561377 2660.30315918 -1655.28727539 2659.79381836 -1654.59814453 2659.26904297 C-1592.34910835 2612.14322798 -1514.16512108 2588.62489083 -1436.625 2586.8125 C-1435.3879834 2586.77962891 -1435.3879834 2586.77962891 -1434.12597656 2586.74609375 C-1358.65013418 2584.99423667 -1282.95612244 2603.42977456 -1214.625 2634.8125 C-1213.71282715 2635.2245166 -1212.8006543 2635.6365332 -1211.86083984 2636.06103516 C-1173.68763537 2653.30694678 -1137.88771217 2676.45082795 -1104.625 2701.8125 C-1103.40758879 2702.73312145 -1102.19014254 2703.65369658 -1100.97265625 2704.57421875 C-1091.21310819 2711.98835178 -1081.78676795 2719.789795 -1072.45654297 2727.73291016 C-1069.09760393 2730.58746225 -1065.69294861 2733.37166276 -1062.25 2736.125 C-1056.26044244 2740.99206361 -1050.69234747 2746.28160384 -1045.08203125 2751.57421875 C-1041.89775971 2754.57334826 -1038.62894164 2757.45673984 -1035.3125 2760.30859375 C-1032.92943239 2762.43239243 -1030.71610875 2764.70972069 -1028.48191833 2766.98802185 C-1026.76560454 2768.67435181 -1025.00104135 2770.22878461 -1023.16430664 2771.78149414 C-1017.34173948 2776.84814352 -1011.94496637 2782.34843605 -1006.49609375 2787.80859375 C-1005.33616945 2788.96784273 -1004.17609688 2790.12694337 -1003.0158844 2791.28590393 C-1000.5962839 2793.70403822 -998.17848029 2796.1239508 -995.76196289 2798.54516602 C-992.68356078 2801.62926472 -989.60068977 2804.70885094 -986.51644802 2807.78710842 C-984.12355131 2810.17637033 -981.73306762 2812.56803514 -979.34327888 2814.96040535 C-978.20825383 2816.09609161 -977.07250181 2817.23105186 -975.93597221 2818.36523247 C-970.47270401 2823.81968173 -965.04899451 2829.266598 -960.0549469 2835.16236877 C-957.5675379 2838.03279093 -954.84006721 2840.65970685 -952.125 2843.3125 C-947.98113152 2847.40453331 -944.00202698 2851.54622378 -940.23046875 2855.98828125 C-937.88948284 2858.6482336 -935.36062913 2861.1022374 -932.8125 2863.5625 C-930.91967836 2865.50940226 -929.13810243 2867.49696948 -927.359375 2869.546875 C-923.64166996 2873.82678889 -919.77727186 2877.95119483 -915.875 2882.0625 C-910.3315622 2887.92670619 -904.8372257 2893.82762799 -899.3984375 2899.7890625 C-896.16756397 2903.32201916 -892.89563756 2906.81639234 -889.625 2910.3125 C-885.45505887 2914.77021709 -881.30358607 2919.24248821 -877.1875 2923.75 C-864.06766517 2938.10023248 -864.06766517 2938.10023248 -850.44081116 2951.96424866 C-848.72720575 2953.70846831 -847.14218972 2955.50541576 -845.56030273 2957.36889648 C-840.99572037 2962.61511874 -836.08098768 2967.50114241 -831.16015625 2972.41015625 C-830.15784919 2973.41313903 -829.15569044 2974.41627003 -828.15367126 2975.41954041 C-826.06508466 2977.50959138 -823.97472612 2979.59784888 -821.88305664 2981.68481445 C-819.2226959 2984.3394787 -816.56685158 2986.99860884 -813.91233158 2989.65911198 C-811.84733394 2991.72774949 -809.77992796 2993.79396699 -807.7118206 2995.85949516 C-806.73243589 2996.83822005 -805.75377319 2997.81766806 -804.77589607 2998.79789925 C-799.22777725 3004.35644538 -793.58495098 3009.6998585 -787.625 3014.8125 C-786.28240533 3016.04204633 -784.94650538 3017.27906465 -783.625 3018.53125 C-782.965 3019.15386719 -782.305 3019.77648438 -781.625 3020.41796875 C-780.29166667 3021.68098958 -778.95833333 3022.94401042 -777.625 3024.20703125 C-773.05140782 3028.52157231 -768.38108383 3032.70044387 -763.625 3036.8125 C-762.77566895 3037.55306641 -762.77566895 3037.55306641 -761.90917969 3038.30859375 C-754.49958477 3044.76710633 -746.95573203 3051.00054233 -739.19140625 3057.02734375 C-736.10205512 3059.42770904 -733.05777252 3061.87990398 -730.01855469 3064.34326172 C-723.06111748 3069.97128661 -715.9554371 3075.29536554 -708.61669922 3080.4140625 C-706.4015074 3081.9694215 -704.2026842 3083.5465288 -702.00390625 3085.125 C-691.26937069 3092.79191885 -680.32097755 3099.88171552 -668.90478516 3106.49121094 C-666.84951113 3107.68238068 -664.80481884 3108.8896897 -662.76171875 3110.1015625 C-616.6323002 3137.12361655 -560.73525125 3156.94414897 -507.08203125 3143.74609375 C-469.31682408 3133.67195688 -440.08164264 3107.935063 -420.484375 3074.57421875 C-377.91166555 2999.63839137 -372.42745294 2906.8723996 -365.19140625 2822.76953125 C-365.08519896 2821.53963408 -364.97899166 2820.3097369 -364.86956596 2819.04257011 C-362.51051432 2791.57805193 -360.67064812 2764.08603591 -358.9229126 2736.5769043 C-353.49913417 2651.28703925 -346.98738984 2566.09201158 -340.26097079 2480.89589284 C-338.26645659 2455.63250784 -336.28215211 2430.36831811 -334.29733048 2405.10417009 C-333.96386389 2400.85962394 -333.63033176 2396.61508295 -333.29674272 2392.37054642 C-329.17737325 2339.95595782 -325.09423197 2287.53862203 -321.05813599 2235.11754888 C-320.528483 2228.23936754 -319.99756003 2221.36128503 -319.46606445 2214.48324585 C-318.82970482 2206.24744016 -318.1950472 2198.01150563 -317.56280684 2189.77538264 C-317.24592306 2185.64741295 -316.92841849 2181.51949403 -316.60904694 2177.391716 C-316.32045205 2173.66097514 -316.03401483 2169.93007521 -315.74935055 2166.19903243 C-315.59813416 2164.22406661 -315.44468081 2162.24927247 -315.29114532 2160.27448559 C-315.2022982 2159.1039882 -315.11345108 2157.93349081 -315.02191162 2156.7275238 C-314.94464718 2155.72212272 -314.86738274 2154.71672163 -314.78777695 2153.68085384 C-314.61966336 2150.71846109 -314.59702234 2147.77900225 -314.625 2144.8125 C-315.10219482 2145.1842334 -315.57938965 2145.5559668 -316.07104492 2145.93896484 C-325.8994676 2153.59364662 -335.7428325 2161.22733695 -345.625 2168.8125 C-347.70842246 2170.41655092 -349.7917538 2172.02072017 -351.875 2173.625 C-357.68254568 2178.09466779 -363.50433022 2182.54561787 -369.32714844 2186.99536133 C-373.59873333 2190.26048403 -377.86498874 2193.53229133 -382.125 2196.8125 C-389.22143891 2202.27605185 -396.33707643 2207.71437046 -403.453125 2213.15234375 C-405.5525904 2214.75715094 -407.65142464 2216.36277916 -409.75 2217.96875 C-418.43394748 2224.61372311 -427.12795454 2231.24536084 -435.82714844 2237.87036133 C-441.26431983 2242.01180929 -446.69719804 2246.15878133 -452.125 2250.3125 C-458.45191452 2255.15428 -464.78677785 2259.98553266 -471.125 2264.8125 C-479.61267857 2271.27670246 -488.09172298 2277.75206089 -496.56445312 2284.23583984 C-500.08400665 2286.92888211 -503.60457365 2289.6205989 -507.125 2292.3125 C-507.82367187 2292.84681641 -508.52234375 2293.38113281 -509.2421875 2293.93164062 C-512.83288859 2296.67766572 -516.42394809 2299.42322009 -520.015625 2302.16796875 C-528.56373692 2308.70111408 -537.10088493 2315.2480747 -545.625 2321.8125 C-547.24651985 2323.06016396 -548.86822434 2324.30758752 -550.48999023 2325.55493164 C-551.58072042 2326.39386716 -552.67137788 2327.23289724 -553.76196289 2328.07202148 C-556.40657716 2330.10679649 -559.05213386 2332.14031303 -561.69921875 2334.171875 C-568.80879886 2339.63117616 -575.89053574 2345.12530418 -582.96264648 2350.63305664 C-587.42171876 2354.10416527 -591.89070492 2357.561554 -596.375 2361 C-601.2926531 2364.77572616 -606.17666982 2368.59128388 -611.04614258 2372.42871094 C-615.10353587 2375.623929 -619.17712843 2378.7975499 -623.25805664 2381.96264648 C-630.28909227 2387.41600085 -637.28261893 2392.91019409 -644.22021484 2398.48193359 C-648.35748814 2401.80350018 -652.51339793 2405.09983683 -656.6875 2408.375 C-657.55060791 2409.05236206 -657.55060791 2409.05236206 -658.43115234 2409.7434082 C-661.30196281 2411.99477896 -664.17548279 2414.2426461 -667.05078125 2416.48828125 C-675.30207169 2422.94056784 -683.45090973 2429.51122697 -691.56640625 2436.13330078 C-695.04117382 2438.96767594 -698.52032246 2441.79665621 -702 2444.625 C-702.67168213 2445.1710791 -703.34336426 2445.7171582 -704.03540039 2446.27978516 C-708.43076887 2449.85037471 -712.84640063 2453.39451606 -717.2734375 2456.92578125 C-721.75260881 2460.51953497 -726.18524435 2464.17026764 -730.625 2467.8125 C-732.33322358 2469.20846765 -734.04155857 2470.60429898 -735.75 2472 C-739.7216759 2475.2485258 -743.68400809 2478.5081199 -747.64208984 2481.77319336 C-750.57590795 2484.19186073 -753.51351125 2486.60591573 -756.45068359 2489.02050781 C-758.53046929 2490.73459124 -760.60356323 2492.45646929 -762.67578125 2494.1796875 C-792.09816617 2518.53024824 -828.54998271 2543.80526675 -868.625 2540.8125 C-894.33751168 2537.3297471 -915.42674132 2523.45834571 -931.01074219 2502.99267578 C-941.26262573 2489.23001208 -949.67658062 2474.684786 -957.5 2459.4375 C-976.64244804 2422.24935467 -1003.98779772 2387.3940079 -1044.73779297 2373.06982422 C-1048.98450096 2371.72446547 -1053.25864194 2370.68216678 -1057.625 2369.8125 C-1058.47433105 2369.63879883 -1059.32366211 2369.46509766 -1060.19873047 2369.28613281 C-1068.42698558 2367.73945795 -1076.51790251 2367.41276081 -1084.875 2367.4375 C-1085.57131531 2367.43804382 -1086.26763062 2367.43858765 -1086.98504639 2367.43914795 C-1108.01807551 2367.51408392 -1127.53836355 2371.89382569 -1147.625 2377.8125 C-1150.43049978 2378.636124 -1153.2364047 2379.45812234 -1156.04418945 2380.27392578 C-1157.77282365 2380.77771433 -1159.49946486 2381.28842693 -1161.22338867 2381.80810547 C-1183.2516109 2388.27662184 -1208.59040364 2389.09725635 -1229.4375 2378.625 C-1254.75985944 2363.88231607 -1266.53977586 2339.00894105 -1273.93823242 2311.76538086 C-1283.78146144 2272.97298758 -1285.91110751 2231.87022781 -1290.18383789 2192.16716003 C-1301.91681554 2080.03808208 -1301.91681554 2080.03808208 -1334.94995117 1972.61743164 C-1335.625 1970.8125 -1335.625 1970.8125 -1335.625 1968.8125 C-1336.5636792 1969.13412109 -1337.5023584 1969.45574219 -1338.46948242 1969.78710938 C-1378.80509269 1983.57206344 -1419.20991486 1994.75853537 -1461.625 1999.8125 C-1462.5629541 1999.92964355 -1463.5009082 2000.04678711 -1464.46728516 2000.16748047 C-1489.94984028 2003.25919844 -1517.19989854 2003.5305359 -1542.625 1999.8125 C-1543.52750488 1999.68359375 -1544.43000977 1999.5546875 -1545.35986328 1999.421875 C-1579.29786835 1994.42060664 -1612.77481659 1983.37043483 -1640.625 1962.8125 C-1641.42115723 1962.2261377 -1641.42115723 1962.2261377 -1642.23339844 1961.62792969 C-1662.86417454 1946.29440525 -1679.41902071 1928.16759224 -1693.625 1906.8125 C-1694.01751953 1906.22484863 -1694.41003906 1905.63719727 -1694.81445312 1905.03173828 C-1729.11231149 1852.87419264 -1744.81608163 1784.6470614 -1732.55859375 1723.1953125 C-1725.58415051 1690.99466271 -1711.09064716 1661.56323187 -1690.625 1635.8125 C-1689.92117188 1634.91660156 -1689.21734375 1634.02070312 -1688.4921875 1633.09765625 C-1677.19964483 1618.99209668 -1664.52853493 1605.37223117 -1650.625 1593.8125 C-1650.09342285 1593.36712891 -1649.5618457 1592.92175781 -1649.01416016 1592.46289062 C-1616.17151004 1565.02450258 -1579.30559438 1544.14203031 -1540.875 1525.5625 C-1539.89225098 1525.08417725 -1538.90950195 1524.60585449 -1537.89697266 1524.11303711 C-1536.98737793 1523.67870361 -1536.0777832 1523.24437012 -1535.140625 1522.796875 C-1534.33915039 1522.41241211 -1533.53767578 1522.02794922 -1532.71191406 1521.63183594 C-1530.625 1520.8125 -1530.625 1520.8125 -1527.625 1520.8125 C-1541.12388118 1482.12668199 -1574.38047157 1462.26839205 -1607.59765625 1441.73828125 C-1620.92504267 1433.46738441 -1633.21144016 1424.64301422 -1644.625 1413.8125 C-1645.58148437 1412.90886719 -1646.53796875 1412.00523438 -1647.5234375 1411.07421875 C-1667.48431413 1391.86840922 -1687.19039643 1365.34039428 -1687.91796875 1336.69873047 C-1688.11844104 1313.48905164 -1678.97793281 1294.02139004 -1663.1875 1277.21875 C-1651.7771458 1266.24725558 -1639.18064588 1262.25179537 -1623.65234375 1262.5 C-1602.58114469 1263.72953751 -1582.93070733 1275.40110843 -1564.625 1284.8125 C-1563.76793457 1285.25142578 -1562.91086914 1285.69035156 -1562.02783203 1286.14257812 C-1518.9320756 1308.27493767 -1479.05780882 1335.13359267 -1443.5390625 1368.14453125 C-1441.39613036 1370.10649191 -1439.23405839 1372.00399647 -1437.02734375 1373.890625 C-1431.8417422 1378.41208198 -1427.00452025 1383.28311801 -1422.15209961 1388.1550293 C-1420.56540054 1389.74708966 -1418.97342258 1391.3337299 -1417.38085938 1392.91992188 C-1411.91742678 1398.37978506 -1406.64531241 1403.93918477 -1401.625 1409.8125 C-1400.00532183 1411.58820221 -1398.38088282 1413.35958307 -1396.75 1415.125 C-1392.30313523 1420.00586809 -1388.10071099 1425.03625524 -1383.95751953 1430.17529297 C-1382.44278396 1432.03638068 -1380.90828215 1433.88007206 -1379.37109375 1435.72265625 C-1371.47474449 1445.20069183 -1363.90506009 1454.8538831 -1356.625 1464.8125 C-1355.83029297 1465.89748779 -1355.83029297 1465.89748779 -1355.01953125 1467.00439453 C-1347.36320791 1477.477281 -1339.89756979 1488.06981218 -1332.625 1498.8125 C-1332.22249023 1499.40530762 -1331.81998047 1499.99811523 -1331.40527344 1500.60888672 C-1319.19836675 1518.61981322 -1307.67014836 1537.06932282 -1296.625 1555.8125 C-1296.07344238 1556.74819824 -1295.52188477 1557.68389648 -1294.95361328 1558.64794922 C-1275.40544913 1591.87155683 -1257.05918232 1625.66316915 -1239.55010986 1659.99871826 C-1238.70479312 1661.65605663 -1237.85808421 1663.31268475 -1237.01123047 1664.96923828 C-1229.14113166 1680.39463194 -1221.8223629 1696.06383611 -1214.625 1711.8125 C-1214.11243652 1712.92882813 -1213.59987305 1714.04515625 -1213.07177734 1715.1953125 C-1170.30225194 1808.5205752 -1136.66200289 1905.89926721 -1101.55578613 2035.59318542 C-1092.90360977 2074.79763108 -1092.90360977 2074.79763108 -1068.3125 2104.3125 C-1055.62029784 2110.0888763 -1041.36890089 2107.25762191 -1028.75488281 2102.62939453 C-1009.01459249 2095.05821028 -990.53672796 2084.54495881 -972.04272461 2074.38818359 C-961.95007319 2068.86153358 -951.7252236 2063.5934838 -941.50537109 2058.30712891 C-937.41015133 2056.18211319 -933.32939395 2054.03019335 -929.25 2051.875 C-888.3443171 2030.30417159 -847.06623937 2009.45675654 -805.68843889 1988.80998826 C-799.97113053 1985.95644196 -794.25520107 1983.10013621 -788.53915405 1980.24406433 C-778.97802124 1975.46712227 -769.4163295 1970.69130187 -759.85400391 1965.91674805 C-759.25414426 1965.61723213 -758.65428462 1965.31771622 -758.03624742 1965.00912406 C-754.38541545 1963.18623759 -750.73456482 1961.36338847 -747.08370781 1959.54055214 C-741.56505624 1956.78514409 -736.04642296 1954.02969941 -730.52783203 1951.27416992 C-729.61919991 1950.82047496 -729.61919991 1950.82047496 -728.69221158 1950.35761444 C-718.54145738 1945.28911272 -708.39151791 1940.21898186 -698.24211824 1935.1477682 C-691.49023368 1931.77429044 -684.73738519 1928.40275298 -677.98374295 1925.03279555 C-673.77796126 1922.93366813 -669.57303335 1920.83283475 -665.36832047 1918.73156738 C-663.44155613 1917.76911029 -661.51445075 1916.80733556 -659.58695221 1915.84634972 C-647.82512303 1909.98175121 -636.14798892 1903.9793787 -624.53692442 1897.82163215 C-620.42616438 1895.65193335 -616.28292538 1893.54620562 -612.13671875 1891.4453125 C-610.35212778 1890.5372779 -608.56762547 1889.62906905 -606.78320312 1888.72070312 C-605.44140991 1888.03826538 -605.44140991 1888.03826538 -604.07250977 1887.34204102 C-591.01464439 1880.69702558 -577.97044757 1874.0546228 -565.15869141 1866.94360352 C-558.24022452 1863.11114608 -551.22299767 1859.48737144 -544.1875 1855.875 C-533.66133164 1850.45973474 -523.32221091 1844.78039032 -513.05078125 1838.8984375 C-508.69208007 1836.4048658 -504.29594747 1833.99100314 -499.87792969 1831.60449219 C-474.01091965 1817.6062312 -450.19921147 1800.62159731 -427.625 1781.8125 C-426.61856445 1780.97775146 -425.61212891 1780.14300293 -424.57519531 1779.28295898 C-415.90465496 1772.01553818 -407.79092133 1764.28987429 -399.81860352 1756.2668457 C-397.80382165 1754.24127518 -395.77846725 1752.22671616 -393.75195312 1750.21289062 C-386.58021989 1743.04849689 -379.89360205 1735.78786176 -373.625 1727.8125 C-372.67846593 1726.68732301 -371.72519421 1725.567736 -370.76171875 1724.45703125 C-349.29451629 1699.63450847 -331.09648306 1671.70888137 -315.625 1642.8125 C-314.93736572 1641.53777832 -314.93736572 1641.53777832 -314.23583984 1640.23730469 C-282.42634724 1581.09640711 -256.18345409 1513.23582624 -250.625 1445.8125 C-250.51542969 1444.52601562 -250.40585938 1443.23953125 -250.29296875 1441.9140625 C-246.84254516 1395.08031303 -254.53900624 1345.94349799 -285.83203125 1309.22265625 C-288.04862471 1306.70327069 -290.31996468 1304.25104673 -292.625 1301.8125 C-293.37136719 1301.00167969 -294.11773438 1300.19085937 -294.88671875 1299.35546875 C-310.12422943 1283.36237902 -329.65652345 1273.27266305 -349.08325195 1263.3215332 C-359.91311544 1257.73975273 -370.42422562 1251.69457129 -380.88037109 1245.44580078 C-383.43771894 1243.92394906 -386.00686119 1242.42502698 -388.58203125 1240.93359375 C-416.07236943 1224.90082184 -442.19373212 1206.17624252 -466.625 1185.8125 C-467.20475586 1185.33184082 -467.78451172 1184.85118164 -468.38183594 1184.35595703 C-475.3692429 1178.55580861 -482.15975791 1172.57882964 -488.81640625 1166.40234375 C-491.26355306 1164.1457953 -493.74751038 1161.9444909 -496.25 1159.75 C-501.26635467 1155.24751581 -506.03883075 1150.50774093 -510.8125 1145.75 C-511.57320801 1144.99388428 -512.33391602 1144.23776855 -513.11767578 1143.45874023 C-517.27716604 1139.28790509 -521.26925609 1135.02958146 -525.11254883 1130.56567383 C-526.98552189 1128.39459723 -528.92962707 1126.29371085 -530.875 1124.1875 C-535.95974602 1118.55118831 -540.59021375 1112.60135375 -545.23095703 1106.60058594 C-546.56449489 1104.8901076 -547.91626354 1103.19641999 -549.27734375 1101.5078125 C-566.11542022 1080.55645223 -580.62822507 1057.86241031 -593.34179688 1034.19824219 C-594.22550861 1032.5552378 -595.11518858 1030.91543416 -596.00976562 1029.27832031 C-635.2783176 957.30368749 -653.48063752 875.83223718 -660.875 794.75 C-660.99976212 793.38391602 -660.99976212 793.38391602 -661.12704468 791.99023438 C-662.7702504 773.76442508 -663.70236443 755.5410099 -664.1875 737.25 C-664.20834656 736.47403473 -664.22919312 735.69806946 -664.25067139 734.89859009 C-664.62143838 720.86647177 -664.82187165 706.84963979 -664.625 692.8125 C-664.6120993 691.83482666 -664.6120993 691.83482666 -664.59893799 690.83740234 C-663.38873033 601.72831603 -653.28970781 513.0203585 -595.05589294 133.18468475 C-594.64065424 130.89868094 -594.22641339 128.61249911 -593.81262207 126.32623291 C-592.42553224 118.66337877 -591.02813461 111.00255405 -589.60803223 103.34573364 C-589.21426993 101.21950815 -588.82307168 99.09280555 -588.43493652 96.96554565 C-586.52955595 86.5550145 -584.35563435 76.28077621 -581.6015625 66.05859375 C-581.24800186 64.74069855 -581.24800186 64.74069855 -580.88729858 63.3961792 C-574.95746015 42.11698585 -564.83118999 19.12344446 -545.625 6.8125 C-532.50090084 0.23404529 -518.74780737 -1.35691168 -504.52734375 2.78515625 C-490.13314647 7.88027588 -480.83631945 15.90903763 -474.25439453 29.6394043 C-460.97237247 59.01615242 -464.33472088 93.35263842 -465.43184471 124.72132874 C-465.59462253 129.37832375 -465.75124618 134.03551642 -465.90705872 138.69274902 C-465.9633691 140.37416481 -466.01968655 142.05558037 -466.0760107 143.7369957 C-466.10458625 144.59014217 -466.13316179 145.44328864 -466.16260326 146.32228804 C-466.28271583 149.90190613 -466.40359286 153.48149826 -466.52445298 157.06109118 C-467.24416444 178.38396865 -467.94895105 199.70731765 -468.63671875 221.03125 C-468.69229128 222.75387881 -468.69229128 222.75387881 -468.74898648 224.51130819 C-470.25284643 271.213539 -471.58671208 317.92025848 -472.89652957 364.62827129 C-473.08932927 371.50333659 -473.28253756 378.3783903 -473.47599792 385.25343704 C-474.50948703 421.98381898 -475.54114853 458.71424526 -476.5471235 495.44539246 C-476.99220733 511.69440271 -477.44345284 527.94323308 -477.90023893 544.19191861 C-478.15127534 553.13017335 -478.39917838 562.06849052 -478.63858986 571.00706482 C-479.54886302 604.94927824 -480.49802956 638.82725439 -483.18646139 672.68634164 C-484.23989093 686.36087991 -484.29894346 699.69929705 -482.125 713.25 C-478.98500684 732.88461451 -480.81072004 752.06790684 -482.90704346 771.70443726 C-486.94991884 802.76027415 -486.94991884 802.76027415 -477.625 831.8125 C-477.26277344 832.40289063 -476.90054687 832.99328125 -476.52734375 833.6015625 C-471.13411123 841.08941438 -460.03158934 846.04892691 -451.07421875 847.5390625 C-450.26597656 847.62929688 -449.45773437 847.71953125 -448.625 847.8125 C-447.51769531 847.94398438 -446.41039062 848.07546875 -445.26953125 848.2109375 C-429.72808094 849.66039919 -414.78772996 847.96799915 -401.875 838.625 C-381.30372035 821.32726937 -377.38771226 793.01779889 -374.625 767.8125 C-374.20898757 762.7872785 -373.90286224 757.75891793 -373.61572266 752.72485352 C-373.53236999 751.32235525 -373.4486296 749.91987997 -373.36452675 748.51742649 C-373.15241634 744.95962395 -372.9460568 741.40151664 -372.74184895 737.84325266 C-372.562839 734.73218542 -372.37993593 731.62134681 -372.19769287 728.51046753 C-371.77619701 721.26660822 -371.36755306 714.02205148 -370.9609375 706.77734375 C-370.88517973 705.43162056 -370.80939251 704.08589904 -370.73357773 702.74017906 C-370.15179188 692.41033783 -369.57472699 682.08023622 -369 671.75 C-368.95659674 670.96999225 -368.91319347 670.18998449 -368.86847496 669.38634014 C-366.07911677 619.24307739 -363.39506628 569.09503652 -360.875 518.9375 C-360.83599862 518.16133001 -360.79699724 517.38516002 -360.756814 516.58546972 C-358.30172997 467.70350372 -355.94304659 418.81683254 -353.59375 369.9296875 C-353.56070955 369.24214349 -353.5276691 368.55459947 -353.49362743 367.84622079 C-351.99899089 336.74232489 -350.50893978 305.6382118 -349.02573526 274.53376865 C-348.59176973 265.43470403 -348.15728775 256.33566406 -347.7227726 247.23662567 C-347.48154693 242.18504651 -347.24057012 237.13345556 -346.99977684 232.08185577 C-345.83329561 207.61869207 -344.65657845 183.15630896 -343.39672852 158.69775391 C-343.34899646 157.76883504 -343.30126441 156.83991618 -343.25208592 155.88284826 C-342.81547514 147.38607615 -342.37694874 138.88943138 -341.92417413 130.39350379 C-340.8433065 110.05949985 -340.10237224 89.74236269 -340.01435375 69.37715054 C-339.85176933 49.53301171 -337.37541463 28.37816187 -325.625 11.8125 C-325.18671875 11.17957031 -324.7484375 10.54664062 -324.296875 9.89453125 C-316.15333597 -0.70611007 -302.97136929 -5.54793726 -290.1875 -7.4375 C-272.62724345 -9.42211023 -253.13699522 -8.90172578 -238.1875 1.6875 C-227.45964685 10.58981512 -222.71713638 22.17768796 -220.625 35.8125 C-220.20928819 41.59009571 -220.27496498 47.38025601 -220.34375 53.16894531 C-220.37494785 55.80808816 -220.38474462 58.44662809 -220.390625 61.0859375 C-220.39979822 62.80729874 -220.41017501 64.52865408 -220.421875 66.25 C-220.42612488 67.01707275 -220.43037476 67.78414551 -220.43475342 68.57446289 C-220.49040697 72.96467626 -220.73887537 77.29357994 -221.12719727 81.66723633 C-221.84949931 90.67266315 -221.80709112 99.67067841 -221.79296875 108.69921875 C-221.79214829 110.19550591 -221.79214829 110.19550591 -221.79131126 111.7220211 C-221.7550933 140.8196714 -220.89774403 169.90505439 -220.13620222 198.99057031 C-219.71072195 215.27216399 -219.30731618 231.55432836 -218.90443754 247.83649445 C-218.8560279 249.79225065 -218.80755322 251.74800524 -218.75901461 253.70375824 C-217.89202816 288.64079071 -217.11872115 323.57942544 -216.38671875 358.51953125 C-216.34798409 360.36752111 -216.34798409 360.36752111 -216.30846691 362.2528441 C-216.07177187 373.54935152 -215.83584482 384.84587492 -215.60053253 396.14241123 C-213.32082032 506.10806733 -213.32082032 506.10806733 -210.5625 616.0625 C-210.54256422 616.79195564 -210.52262844 617.52141128 -210.50208855 618.27297163 C-209.22336751 665.0078112 -207.66557111 711.73138546 -205.84350586 758.44824219 C-205.72084152 761.62573068 -205.59836417 764.80322634 -205.47589684 767.98072243 C-205.36466761 770.8293002 -205.2489622 773.677668 -205.13276672 776.52604675 C-204.7877274 785.2406904 -204.55992828 793.9429908 -204.55175781 802.66503906 C-204.55085018 803.47843719 -204.54994255 804.29183531 -204.54900742 805.12988186 C-204.57088896 811.99304934 -205.03178368 818.78867247 -205.625 825.625 C-209.8809075 867.20390204 -209.8809075 867.20390204 -194.484375 904.3203125 C-183.36525379 914.85626302 -169.79303507 916.39805117 -155.1015625 916.05859375 C-142.0457778 915.50238079 -129.58459342 911.12759641 -120.53515625 901.390625 C-105.2855076 880.80827713 -103.57644915 854.08944411 -103.4140625 829.37109375 C-103.38794068 826.8312946 -103.36138372 824.2914999 -103.33447266 821.75170898 C-103.32099996 820.37027041 -103.30759419 818.98883118 -103.29425049 817.60739136 C-102.97960483 785.88624168 -102.25276847 754.17863485 -101.44552612 722.46673584 C-99.33287311 639.30189034 -97.777788 556.12853619 -94.53360564 337.39717793 C-94.50002818 335.00201012 -94.46641362 332.60684284 -94.43279219 330.21167564 C-93.08884293 235.91704244 -93.08884293 235.91704244 -92.21875 141.6171875 C-92.20991216 140.26936184 -92.20991216 140.26936184 -92.20089579 138.89430737 C-92.09332468 122.38739381 -92.00442232 105.88052297 -91.96353531 89.37330246 C-91.95037571 84.14438431 -91.92965095 78.91549699 -91.90904236 73.68660355 C-91.89900234 70.31839745 -91.89986935 66.95033903 -91.90197754 63.5821228 C-91.81364593 18.2572836 -91.81364593 18.2572836 -77.625 2.8125 C-58.83524656 -15.27744884 -20.76933208 -15.24257761 0 0 Z M-1559.625 1699.8125 C-1560.29015625 1700.46863281 -1560.9553125 1701.12476563 -1561.640625 1701.80078125 C-1580.78408662 1721.93590867 -1585.20543875 1751.83989936 -1584.90625 1778.37890625 C-1584.24996008 1800.61729018 -1575.1558869 1820.01793081 -1559.625 1835.8125 C-1558.93792969 1836.51246094 -1558.25085937 1837.21242188 -1557.54296875 1837.93359375 C-1538.66414795 1855.90174787 -1510.19101861 1863.26796791 -1484.74853516 1863.11279297 C-1467.25634478 1862.64300513 -1450.34359681 1857.99914103 -1436.625 1846.8125 C-1435.79484375 1846.14476562 -1434.9646875 1845.47703125 -1434.109375 1844.7890625 C-1415.06691747 1828.60881484 -1406.17353401 1805.11979145 -1401.25 1781.25 C-1401.08209961 1780.44143555 -1400.91419922 1779.63287109 -1400.74121094 1778.79980469 C-1396.48833131 1756.54337415 -1403.46323452 1729.83973947 -1415.75488281 1711.08886719 C-1429.93673143 1690.5781214 -1450.27141405 1679.25680422 -1474.625 1674.8125 C-1505.75496066 1670.16238139 -1537.29311072 1676.90539538 -1559.625 1699.8125 Z M1.375 2142.8125 C1.95457405 2158.37064999 2.76394698 2173.89529817 3.83032227 2189.42724609 C3.97537803 2191.57402352 4.12017028 2193.72081876 4.26472473 2195.86763 C4.65479894 2201.64813825 5.04881458 2207.42837119 5.44380689 2213.20854521 C5.77994449 2218.13304482 6.11408064 2223.0576795 6.4482531 2227.9823128 C7.29030305 2240.39089761 8.13616353 2252.79921974 8.98385065 2265.20742054 C9.65606226 2275.04853689 10.32462189 2284.88989669 10.99047852 2294.73144531 C17.05134173 2384.29780839 23.32728019 2473.85121275 30.961483 2563.29933929 C31.91445603 2574.49045032 32.85247916 2585.68283447 33.79296875 2596.875 C33.89917101 2598.13705135 34.00537327 2599.39910271 34.11479378 2600.69939804 C35.78741945 2620.58752711 37.40402286 2640.47968395 38.98828125 2660.375 C39.09654207 2661.73407127 39.20480509 2663.09314237 39.3130703 2664.45221329 C39.68990277 2669.18318995 40.06663232 2673.91417482 40.44325054 2678.64516854 C48.60192805 2781.1262506 57.20613591 2883.63319354 85.375 3026.8125 C85.65601563 3027.76688965 85.93703125 3028.7212793 86.2265625 3029.70458984 C89.92149115 3041.93155814 94.87014675 3053.49564704 100.375 3065 C100.66214874 3065.60415741 100.94929749 3066.20831482 101.24514771 3066.83078003 C118.05007736 3101.94970485 146.24779582 3130.97949488 183.28515625 3144.25390625 C187.27185526 3145.60963077 191.30146964 3146.74970974 195.375 3147.8125 C196.58414062 3148.13347656 197.79328125 3148.45445312 199.0390625 3148.78515625 C219.35068093 3153.23220102 243.16362972 3152.49317206 263.375 3147.8125 C264.51437012 3147.55509033 264.51437012 3147.55509033 265.67675781 3147.29248047 C309.07384024 3137.25499902 349.21018447 3115.02940485 384.47607422 3088.24023438 C386.61501174 3086.63204376 388.77601637 3085.05675912 390.94140625 3083.484375 C400.77452482 3076.33409881 410.32719002 3068.93306707 419.69873047 3061.18896484 C421.94263312 3059.34638938 424.22020998 3057.54788319 426.5 3055.75 C435.95208248 3048.20421987 445.02614437 3040.20821643 453.9375 3032.03515625 C456.01772725 3030.13828236 458.12056898 3028.27857057 460.25 3026.4375 C467.95972949 3019.72924053 475.51042993 3012.80230173 482.65809631 3005.4969635 C484.39579827 3003.7920947 486.19807049 3002.2118711 488.04858398 3000.63061523 C492.47782084 2996.77522355 496.63999852 2992.69190012 500.78515625 2988.53515625 C501.55629257 2987.76497665 502.32742889 2986.99479706 503.12193298 2986.20127869 C504.74080153 2984.58308627 506.35842551 2982.96364788 507.97485352 2981.34301758 C510.43068718 2978.88182768 512.89181365 2976.42602191 515.35351562 2973.97070312 C516.93521653 2972.38834133 518.51660717 2970.80566933 520.09765625 2969.22265625 C520.82388687 2968.49844986 521.55011749 2967.77424347 522.2983551 2967.02809143 C526.29834744 2963.00994144 530.12890059 2958.90263369 533.8143158 2954.59336853 C536.35898028 2951.68969789 539.11489141 2949.00930143 541.875 2946.3125 C546.01886848 2942.22046669 549.99797302 2938.07877622 553.76953125 2933.63671875 C556.11051716 2930.9767664 558.63937087 2928.5227626 561.1875 2926.0625 C563.08032164 2924.11559774 564.86189757 2922.12803052 566.640625 2920.078125 C570.35833185 2915.79820902 574.22276499 2911.67384272 578.125 2907.5625 C584.60756142 2900.70366184 591.01895939 2893.78864213 597.375 2886.8125 C604.45280828 2879.06061474 611.57872601 2871.35687967 618.75 2863.69140625 C621.19328977 2861.07954535 623.63031266 2858.46204573 626.0625 2855.83984375 C631.67587654 2849.79386019 637.28233411 2843.77275798 643.21484375 2838.03515625 C645.01503914 2836.18287564 646.68062614 2834.2984616 648.35595703 2832.3359375 C652.95430649 2827.06837275 657.89182122 2822.1509834 662.83984375 2817.21484375 C663.84215081 2816.21186097 664.84430956 2815.20872997 665.84632874 2814.20545959 C667.93491534 2812.11540862 670.02527388 2810.02715112 672.11694336 2807.94018555 C674.7773041 2805.2855213 677.43314842 2802.62639116 680.08766842 2799.96588802 C682.15266606 2797.89725051 684.22007204 2795.83103301 686.2881794 2793.76550484 C687.26756411 2792.78677995 688.24622681 2791.80733194 689.22410393 2790.82710075 C694.26851315 2785.77321091 699.34522797 2780.82667901 704.77784729 2776.18946838 C706.74684134 2774.4919209 708.56977939 2772.68219277 710.375 2770.8125 C713.50345964 2767.64160002 716.74355352 2764.6868004 720.12109375 2761.78515625 C722.33484286 2759.8476462 724.49742248 2757.8610561 726.65380859 2755.86010742 C731.85902804 2751.03189766 737.18909539 2746.44993542 742.72265625 2741.99609375 C745.36767637 2739.81852932 747.90712525 2737.55931237 750.4375 2735.25 C755.24998495 2730.8757005 760.25773009 2726.82273874 765.375 2722.8125 C766.37789062 2722.01457031 767.38078125 2721.21664062 768.4140625 2720.39453125 C801.79119688 2693.88152487 836.85191479 2670.06859331 874.375 2649.8125 C875.22868164 2649.34875977 876.08236328 2648.88501953 876.96191406 2648.40722656 C943.94962198 2612.16559348 1015.1760175 2594.80269353 1090.375 2586.8125 C1090.85125304 2584.29575718 1091.32633883 2581.77880299 1091.80078125 2579.26171875 C1092.00048523 2578.20736633 1092.00048523 2578.20736633 1092.20422363 2577.13171387 C1094.58417272 2565.05407592 1094.58417272 2565.05407592 1095.375 2552.8125 C1080.72930419 2544.41298042 1066.06485575 2536.05282272 1051.32250977 2527.82373047 C1043.96113363 2523.7111055 1036.63338325 2519.54313728 1029.31982422 2515.34619141 C1022.59489622 2511.49338132 1015.83239643 2507.7106112 1009.0625 2503.9375 C999.77324622 2498.7565157 990.56732822 2493.44824142 981.39526367 2488.06298828 C974.27025408 2483.89029214 967.08969138 2479.82788099 959.875 2475.8125 C950.67232695 2470.68816262 941.5415688 2465.45536725 932.45605469 2460.1262207 C926.27821611 2456.50270011 920.08050265 2452.91701218 913.86547852 2449.35766602 C898.87617259 2440.76476096 884.11250884 2431.82655782 869.375 2422.8125 C802.16067838 2379.42397841 802.16067838 2379.42397841 724.75 2374.3125 C690.56807827 2384.5418633 669.25177854 2412.05006311 652.90893555 2442.12548828 C649.32442302 2448.84035658 646.03431259 2455.66783257 642.8125 2462.5625 C628.36386714 2493.29389854 607.79798381 2520.92734013 575.375 2533.8125 C547.96959285 2543.34481553 519.45661399 2534.72441826 494.35888672 2522.859375 C475.10312452 2513.4871453 457.94101087 2500.248367 441.43701172 2486.75024414 C437.12097831 2483.22057622 432.77072953 2479.74230098 428.375 2476.3125 C422.63472158 2471.83072395 416.97806211 2467.25293 411.3359375 2462.6484375 C407.05048382 2459.15719917 402.73170547 2455.71431112 398.375 2452.3125 C393.3265356 2448.37054835 388.33748538 2444.3621258 383.375 2440.3125 C376.67495038 2434.84730474 369.90714839 2429.47693876 363.09277344 2424.15527344 C360.18228392 2421.88016082 357.27901293 2419.59586957 354.375 2417.3125 C350.88848899 2414.57195374 347.40121842 2411.83240368 343.91015625 2409.09765625 C338.55804902 2404.90249658 333.21857675 2400.6942142 327.91992188 2396.43164062 C321.98828589 2391.66013534 316.00163868 2386.97711867 309.9375 2382.375 C303.55936262 2377.5331864 297.31276579 2372.55478069 291.11791992 2367.48120117 C286.00898054 2363.30449915 280.81175907 2359.26090852 275.56640625 2355.2578125 C272.2486898 2352.72391293 268.96608534 2350.14673081 265.6875 2347.5625 C260.26633256 2343.29132351 254.82553847 2339.04612866 249.375 2334.8125 C244.03009121 2330.66039584 238.69267476 2326.4994316 233.375 2322.3125 C225.07057924 2315.77536228 216.72135324 2309.29595279 208.375 2302.8125 C199.46519308 2295.89135601 190.55848234 2288.96709367 181.69335938 2281.98876953 C174.71511194 2276.49987948 167.7006084 2271.05758327 160.68945312 2265.61083984 C156.91684366 2262.67950637 153.14599645 2259.74590802 149.375 2256.8125 C147.87500877 2255.64582206 146.37500876 2254.4791554 144.875 2253.3125 C129.875 2241.64583333 114.875 2229.97916667 99.875 2218.3125 C99.13217773 2217.7347583 98.38935547 2217.1570166 97.62402344 2216.56176758 C96.12724357 2215.39758741 94.63049866 2214.2333623 93.13378906 2213.0690918 C89.33480942 2210.11400827 85.53518535 2207.15975986 81.734375 2204.20703125 C74.37233296 2198.48652561 67.01927074 2192.75547851 59.69335938 2186.98876953 C51.9472205 2180.89587801 44.15791989 2174.85827739 36.375 2168.8125 C34.05293999 2167.00872223 31.73097931 2165.20481772 29.40942383 2163.40039062 C27.89923349 2162.22671272 26.38866052 2161.05352697 24.87768555 2159.88085938 C21.31603716 2157.11370531 17.76533217 2154.33459766 14.23828125 2151.5234375 C13.5947168 2151.01192139 12.95115234 2150.50040527 12.28808594 2149.97338867 C11.08920512 2149.01887077 9.89305482 2148.06090909 8.70019531 2147.09887695 C6.25153344 2145.15121339 4.37278216 2143.81176072 1.375 2142.8125 Z M-1131.90405273 3261.57568359 C-1150.63640356 3284.6753445 -1153.60947982 3313.42272542 -1151.35693359 3342.2421875 C-1147.50265946 3378.9640978 -1136.12449361 3417.7776287 -1119.625 3450.8125 C-1119.24553223 3451.59157715 -1118.86606445 3452.3706543 -1118.47509766 3453.17333984 C-1109.76148254 3470.98824443 -1098.82150997 3487.0299688 -1085.625 3501.8125 C-1084.90183594 3502.65683594 -1084.17867187 3503.50117188 -1083.43359375 3504.37109375 C-1068.3952486 3521.68042288 -1050.27506788 3535.18620984 -1030.625 3546.8125 C-1029.95339844 3547.21678223 -1029.28179688 3547.62106445 -1028.58984375 3548.03759766 C-957.86051623 3590.36446989 -868.1324805 3598.4328477 -749.80224609 3603.72460938 C-747.04159532 3603.77966624 -744.28193656 3603.84915309 -741.52197266 3603.93164062 C-673.53570244 3605.89525542 -571.21514613 3606.62550936 -518.1875 3558.5 C-501.59732965 3542.78945358 -491.78638039 3521.16609431 -490.41845703 3498.37060547 C-490.32209833 3494.74442277 -490.29577943 3491.1274083 -490.3125 3487.5 C-490.31813965 3486.2197998 -490.3237793 3484.93959961 -490.32958984 3483.62060547 C-490.61754584 3461.22561228 -496.84738983 3443.24871347 -512.1875 3426.6875 C-540.94855165 3399.02419841 -587.26069777 3399.3479323 -624.4375 3397.375 C-709.09210962 3392.87300585 -791.28468316 3375.02994142 -924.625 3318.8125 C-925.62837402 3318.34166992 -926.63174805 3317.87083984 -927.66552734 3317.38574219 C-961.92514376 3301.29535739 -994.97371334 3283.44098111 -1027.02734375 3263.30322266 C-1061.51302023 3241.69229436 -1100.40388425 3224.63551002 -1131.90405273 3261.57568359 Z " fill="#F77F00" transform="translate(1804.625,10.1875)"/>
</svg>
